Note: VIETNAMESE HARD SUB + WATERMARKS - DOWNLOAD AT YOUR OWN CHOICE!

CAP: 
http://i.imgur.com/ge9vVpj.jpg 
http://i.imgur.com/ih7X4gK.jpg

THUMBNAILS: 
http://i.imgur.com/goYPpgC.jpg 



Format                                   : Matroska
Format version                           : Version 4 / Version 2
File size                                : 3.05 GiB
Duration                                 : 2h 49mn
Overall bit rate                         : 2 568 Kbps
Encoded date                             : UTC 2013-03-11 16:18:21
Writing application                      : mkvmerge v6.0.0 ('Coming Up For Air') built on Jan 20 2013 09:52:00
Writing library                          : libebml v1.3.0 + libmatroska v1.4.0

Video
ID                                       : 1
Format                                   : AVC
Format/Info                              : Advanced Video Codec
Format profile                           : High@L4.0
Format settings, CABAC                   : Yes
Format settings, ReFrames                : 11 frames
Codec ID                                 : V_MPEG4/ISO/AVC
Duration                                 : 2h 49mn
Bit rate                                 : 2 133 Kbps
Width                                    : 1 280 pixels
Height                                   : 534 pixels
Display aspect ratio                     : 2.40:1
Frame rate mode                          : Constant
Frame rate                               : 23.976 fps
Color space                              : YUV
Chroma subsampling                       : 4:2:0
Bit depth                                : 8 bits
Scan type                                : Progressive
Bits/(Pixel*Frame)                       : 0.130
Stream size                              : 2.53 GiB (83%)
Language                                 : English
Default                                  : Yes
Forced                                   : No
Matrix coefficients                      : BT.709

Audio
ID                                       : 2
Format                                   : AC-3
Format/Info                              : Audio Coding 3
Mode extension                           : CM (complete main)
Format settings, Endianness              : Big
Codec ID                                 : A_AC3
Duration                                 : 2h 49mn
Bit rate mode                            : Constant
Bit rate                                 : 384 Kbps
Channel(s)                               : 2 channels
Channel positions                        : Front: L R
Sampling rate                            : 48.0 KHz
Bit depth                                : 16 bits
Compression mode                         : Lossy
Stream size                              : 467 MiB (15%)
Default                                  : Yes
Forced                                   : No



Note: VIETNAMESE HARD SUB + WATERMARKS - DOWNLOAD AT YOUR OWN CHOICE!

CAP: 
http://i.imgur.com/ge9vVpj.jpg 
http://i.imgur.com/ih7X4gK.jpg

THUMBNAILS: 
http://i.imgur.com/goYPpgC.jpg 